<svg xmlns="http://www.w3.org/2000/svg" width="790" height="436" viewBox="0 0 790 436">
  <g id="Group_4" data-name="Group 4" transform="translate(-2601 -84)">
    <g id="Group_7" data-name="Group 7">
      <g id="Rectangle_8" data-name="Rectangle 8" transform="translate(2622 84)" fill="none" stroke="#282e27" stroke-width="15">
        <rect width="748" height="436" rx="10" stroke="none"/>
        <rect x="7.5" y="7.5" width="733" height="421" rx="2.5" fill="none"/>
      </g>
      <g id="Path_3" data-name="Path 3" transform="translate(2601 236)" fill="none">
        <path d="M389.162,109.2c2.32,2.411,7.276,3.4,11.675,0L474.346,56.91,764.8,265.881A10,10,0,0,1,758.961,284H31.039A10,10,0,0,1,25.2,265.881L316.228,57.141Z" stroke="none"/>
        <path d="M 474.2953491210938 75.35235595703125 L 410.0142822265625 121.0626678466797 C 405.50537109375 124.5497741699219 400.2257080078125 126.3929901123047 394.7460632324219 126.3929901123047 C 389.1147766113281 126.3929901123047 383.7157897949219 124.3902130126953 379.6632690429688 120.8462371826172 L 316.2493286132813 75.58551025390625 L 46.5885009765625 269 L 743.4501342773438 269 L 474.2953491210938 75.35235595703125 M 474.3463745117188 56.91021728515625 L 764.798828125 265.8807678222656 C 772.6846923828125 271.550537109375 768.6737060546875 284 758.9613037109375 284 L 31.0386962890625 284 C 21.326171875 284 17.315185546875 271.550537109375 25.2010498046875 265.8807678222656 L 316.2279357910156 57.14144897460938 L 389.1622619628906 109.1972198486328 C 390.4192810058594 110.5034027099609 392.4499206542969 111.3929595947266 394.7460327148438 111.3929595947266 C 396.688720703125 111.3929595947266 398.8213195800781 110.7565460205078 400.8376159667969 109.1972198486328 L 474.3463745117188 56.91021728515625 Z" stroke="none" fill="#282e27"/>
      </g>
      <g id="Polygon_1" data-name="Polygon 1" transform="translate(3391 368) rotate(180)" fill="none">
        <path d="M389.162,4.2a10,10,0,0,1,11.675,0L764.8,265.881A10,10,0,0,1,758.961,284H31.039A10,10,0,0,1,25.2,265.881Z" stroke="none"/>
        <path d="M 395 18.474609375 L 46.5579833984375 268.9999694824219 L 743.4417724609375 268.9999694824219 L 395 18.474609375 M 394.9999084472656 2.316436767578125 C 397.0467834472656 2.316436767578125 399.0936584472656 2.943359375 400.8376159667969 4.19720458984375 L 764.798828125 265.8807678222656 C 772.6846923828125 271.550537109375 768.6737060546875 283.9999694824219 758.9613037109375 283.9999694824219 L 31.0386962890625 283.9999694824219 C 21.326171875 283.9999694824219 17.315185546875 271.550537109375 25.2010498046875 265.8807678222656 L 389.1622619628906 4.19720458984375 C 390.9061584472656 2.943359375 392.9530334472656 2.316436767578125 394.9999084472656 2.316436767578125 Z" stroke="none" fill="#282e27"/>
      </g>
    </g>
  </g>
</svg>
