<svg xmlns="http://www.w3.org/2000/svg" width="406" height="748" viewBox="0 0 406 748">
  <g id="Group_5" data-name="Group 5" transform="translate(-2775 20)">
    <g id="Rectangle_9" data-name="Rectangle 9" transform="translate(2775 -20)" fill="none" stroke="#282e27" stroke-width="15">
      <rect width="406" height="748" rx="15" stroke="none"/>
      <rect x="7.5" y="7.5" width="391" height="733" rx="7.5" fill="none"/>
    </g>
    <g id="Path_2" data-name="Path 2" transform="translate(2775 606)" fill="none">
      <path d="M0,0H406V102a20,20,0,0,1-20,20H20A20,20,0,0,1,0,102Z" stroke="none"/>
      <path d="M 15 15 L 15 102 C 15 104.7570037841797 17.24301147460938 107 20 107 L 386 107 C 388.7569885253906 107 391 104.7570037841797 391 102 L 391 15 L 15 15 M 0 0 L 406 0 L 406 102 C 406 113.0456695556641 397.045654296875 122 386 122 L 20 122 C 8.954345703125 122 0 113.0456695556641 0 102 L 0 0 Z" stroke="none" fill="#282e27"/>
    </g>
    <g id="Rectangle_11" data-name="Rectangle 11" transform="translate(3181 102) rotate(180)" fill="none" stroke="#282e27" stroke-width="15">
      <path d="M0,0H406a0,0,0,0,1,0,0V102a20,20,0,0,1-20,20H20A20,20,0,0,1,0,102V0A0,0,0,0,1,0,0Z" stroke="none"/>
      <path d="M15,7.5H391a7.5,7.5,0,0,1,7.5,7.5v87A12.5,12.5,0,0,1,386,114.5H20A12.5,12.5,0,0,1,7.5,102V15A7.5,7.5,0,0,1,15,7.5Z" fill="none"/>
    </g>
    <g id="Rectangle_12" data-name="Rectangle 12" transform="translate(2896 27)" fill="#282e27" stroke="#282e27" stroke-width="1">
      <rect width="164" height="29" rx="14.5" stroke="none"/>
      <rect x="0.5" y="0.5" width="163" height="28" rx="14" fill="none"/>
    </g>
    <g id="Ellipse_1" data-name="Ellipse 1" transform="translate(2945 634)" fill="none" stroke="#282e27" stroke-width="20">
      <circle cx="33" cy="33" r="33" stroke="none"/>
      <circle cx="33" cy="33" r="23" fill="none"/>
    </g>
  </g>
</svg>
